<?xml version="1.0" standalone="no"?>
<!DOCTYPE svg PUBLIC "-//W3C//DTD SVG 20010904//EN"
 "http://www.w3.org/TR/2001/REC-SVG-20010904/DTD/svg10.dtd">
<svg version="1.0" xmlns="http://www.w3.org/2000/svg"
 width="56.000000pt" height="56.000000pt" viewBox="0 0 56.000000 56.000000"
 preserveAspectRatio="xMidYMid meet">
<metadata>
Created by potrace 1.16, written by Peter Selinger 2001-2019
</metadata>
<g transform="translate(0.000000,56.000000) scale(0.028000,-0.028000)"
fill="#000000" stroke="none">
<path d="M1250 1850 l0 -50 -230 0 -230 0 0 -55 0 -55 230 0 230 0 -1 -327 c0
-257 -3 -324 -12 -310 -30 46 -164 251 -214 330 -31 48 -60 84 -63 80 -25 -28
-340 -617 -333 -623 4 -4 25 -17 45 -29 l36 -22 57 101 56 100 163 0 163 0 49
-72 49 -73 5 -215 5 -216 33 -66 c36 -73 86 -123 161 -160 69 -34 195 -33 271
3 107 50 177 148 189 265 l7 64 -53 0 c-47 0 -53 -2 -53 -21 0 -86 -66 -184
-145 -215 -86 -32 -201 -4 -252 62 -46 61 -52 95 -53 298 l0 189 43 78 42 79
166 0 166 0 64 -99 63 -100 41 25 c22 13 39 30 39 38 -2 20 -388 615 -396 610
-3 -2 -54 -92 -113 -199 -59 -107 -109 -195 -111 -195 -2 0 -4 140 -4 310 l0
310 230 0 230 0 0 55 0 55 -230 0 -230 0 0 50 0 50 -55 0 -55 0 0 -50z m-180
-745 c0 -3 -43 -5 -95 -5 l-94 0 18 33 c10 17 31 54 46 81 l27 49 49 -77 c27
-42 49 -79 49 -81z m580 79 c27 -41 50 -77 50 -80 0 -2 -43 -4 -96 -4 -53 0
-94 3 -92 8 8 19 83 152 85 152 1 0 25 -34 53 -76z"/>
<path d="M20 1794 c-13 -4 -15 -51 -15 -344 l0 -340 58 0 57 0 0 286 0 287 54
-6 c112 -11 234 -105 278 -214 22 -57 23 -67 26 -456 3 -440 0 -477 -58 -567
-54 -84 -151 -145 -250 -157 l-50 -6 0 -58 0 -59 33 0 c93 0 217 54 296 130
59 57 91 106 120 185 21 59 22 68 19 525 l-3 465 -33 65 c-66 129 -160 210
-290 250 -59 19 -196 26 -242 14z"/>
<path d="M954 501 c-100 -61 -119 -192 -39 -274 109 -112 297 -34 297 123 0
72 -41 135 -105 159 -45 17 -118 13 -153 -8z"/>
</g>
</svg>
