<?xml version="1.0" standalone="no"?>
<!DOCTYPE svg PUBLIC "-//W3C//DTD SVG 20010904//EN"
 "http://www.w3.org/TR/2001/REC-SVG-20010904/DTD/svg10.dtd">
<svg version="1.0" xmlns="http://www.w3.org/2000/svg"
 width="56.000000pt" height="56.000000pt" viewBox="0 0 56.000000 56.000000"
 preserveAspectRatio="xMidYMid meet">
<metadata>
Created by potrace 1.16, written by Peter Selinger 2001-2019
</metadata>
<g transform="translate(0.000000,56.000000) scale(0.028000,-0.028000)"
fill="#000000" stroke="none">
<path d="M378 1269 c-36 -14 -40 -31 -27 -101 11 -54 8 -135 -7 -199 -9 -41
17 -59 85 -59 83 0 96 16 80 104 -8 50 -8 86 0 141 13 88 9 100 -31 114 -37
13 -64 13 -100 0z"/>
<path d="M128 1193 c-19 -22 -67 -133 -99 -228 -18 -53 -23 -93 -24 -165 0
-95 0 -95 25 -95 24 0 25 2 27 79 2 43 8 85 13 91 6 7 10 17 9 21 -4 25 7 29
79 32 84 4 103 12 86 40 -8 13 -28 18 -78 20 -36 2 -66 6 -66 10 0 4 7 18 16
30 8 12 12 22 9 22 -3 0 8 27 25 59 18 33 30 67 28 77 -4 25 -31 29 -50 7z"/>
<path d="M817 1154 c-4 -4 -7 -65 -7 -136 0 -107 -2 -128 -15 -128 -9 0 -15
-9 -15 -25 0 -21 5 -25 30 -25 17 0 38 9 50 22 19 21 20 33 18 158 l-3 135
-25 3 c-14 2 -29 0 -33 -4z"/>
<path d="M1150 1133 c0 -28 0 -28 -60 -25 -59 4 -60 3 -60 -22 0 -22 4 -26 30
-26 36 0 38 -16 12 -100 -16 -50 -21 -55 -48 -58 l-31 -3 -11 88 c-6 48 -10
99 -9 112 2 27 -23 47 -48 37 -13 -5 -16 -13 -11 -37 3 -16 9 -73 12 -125 8
-111 17 -124 79 -124 74 0 109 29 121 100 1 8 7 33 12 55 9 38 10 36 11 -33 1
-66 -1 -74 -19 -79 -13 -4 -20 -14 -20 -30 0 -24 2 -25 41 -20 22 3 44 8 47
12 4 4 9 41 12 83 l5 77 13 -60 c22 -101 19 -96 65 -93 34 2 42 7 42 23 0 13
-8 21 -21 23 -17 2 -24 13 -30 45 -14 77 -12 98 12 140 30 53 30 59 -3 55 -22
-2 -34 -14 -55 -53 l-28 -50 0 58 c0 57 0 57 -30 57 -26 0 -30 -4 -30 -27z"/>
<path d="M1378 1141 c-27 -27 -22 -39 20 -44 l37 -4 -37 -1 c-31 -2 -38 -6
-38 -22 0 -15 7 -20 28 -21 l27 -1 -25 -7 c-14 -4 -26 -14 -28 -23 -3 -14 15
-16 146 -17 171 -1 162 -7 162 98 l0 54 -115 -7 c-77 -5 -115 -3 -115 4 0 16
-43 10 -62 -9z"/>
<path d="M1722 1122 c-20 -30 -22 -46 -22 -158 l0 -124 25 0 c20 0 25 5 25 25
0 14 4 25 9 25 4 0 6 -11 3 -26 -4 -24 -3 -25 41 -23 l45 3 1 103 c2 79 -1
103 -11 103 -9 0 -10 3 -2 8 6 4 14 14 17 22 6 17 9 -41 7 -149 -1 -52 3 -76
12 -82 22 -14 128 -11 128 4 0 22 -23 37 -57 37 -27 0 -33 4 -33 21 0 19 5 21
40 17 46 -4 54 9 48 73 -3 32 -5 34 -45 37 -35 3 -43 7 -43 23 0 14 7 19 26
19 29 0 64 16 64 30 0 6 -20 10 -45 10 -33 0 -45 4 -45 15 0 9 -9 15 -25 15
-14 0 -25 -6 -25 -14 0 -9 -8 -12 -25 -8 -18 3 -25 0 -25 -12 0 -10 -8 -16
-22 -16 l-21 0 22 24 22 24 -33 4 c-29 3 -37 -1 -56 -30z"/>
<path d="M716 1118 c-3 -13 -6 -46 -6 -74 0 -84 -11 -144 -26 -144 -18 0 -18
-24 1 -40 20 -17 54 -3 66 27 5 13 9 54 9 91 0 37 4 83 10 101 7 24 6 39 -1
48 -18 20 -46 15 -53 -9z"/>
<path d="M236 1101 c-4 -5 1 -38 10 -73 11 -43 15 -85 11 -135 -4 -59 -3 -75
10 -81 13 -8 13 -12 0 -38 -22 -45 -13 -54 58 -54 49 0 64 4 69 16 8 21 -11
44 -35 44 -20 0 -25 15 -9 25 17 11 11 50 -10 68 -16 13 -20 28 -19 60 1 37
-22 144 -37 168 -7 12 -41 11 -48 0z"/>
<path d="M1370 915 l0 -75 126 0 c69 0 134 5 145 10 16 9 19 22 19 75 l0 65
-145 0 -145 0 0 -75z"/>
</g>
</svg>
